<?xml version="1.0"?>
<svg xmlns="http://www.w3.org/2000/svg" xmlns:xlink="http://www.w3.org/1999/xlink" version="1.1" id="Capa_1" x="0px" y="0px" viewBox="0 0 512.001 512.001" style="enable-background:new 0 0 512.001 512.001;" xml:space="preserve" width="512px" height="512px" class=""><g><path style="fill:#FFE89C" d="M452.923,103.385H59.077c-8.157,0-14.769,6.613-14.769,14.769v349.538  c0,24.431,19.876,44.308,44.308,44.308h334.769c24.431,0,44.308-19.876,44.308-44.308V118.154  C467.693,109.997,461.08,103.385,452.923,103.385z" data-original="#FFE89C" class="" data-old_color="#FFE89C"/><path style="fill:#FFE89C" d="M452.923,103.385H256V512h167.385c24.431,0,44.308-19.876,44.308-44.308V118.154  C467.693,109.997,461.08,103.385,452.923,103.385z" data-original="#FFD399" class="" data-old_color="#FFD399"/><path style="fill:#FD003A;" d="M423.385,0H88.616C64.184,0,44.308,19.876,44.308,44.308v73.846c0,8.157,6.613,14.769,14.769,14.769  h393.846c8.157,0,14.769-6.613,14.769-14.769V44.308C467.693,19.876,447.816,0,423.385,0z" data-original="#FD003A" class=""/><path style="fill:#FF0000" d="M423.385,0H256v132.923h196.923c8.157,0,14.769-6.613,14.769-14.769V44.308  C467.693,19.876,447.816,0,423.385,0z" data-original="#C60034" class="" data-old_color="#C60034"/><path style="fill:#F3AE4F" d="M466.676,309.691c-2.216-5.66-7.674-9.383-13.753-9.383H256c-8.157,0-14.769,6.613-14.769,14.769  v182.154c0,5.869,3.475,11.18,8.853,13.533c1.903,0.832,3.916,1.237,5.914,1.237c3.649,0,7.248-1.352,10.031-3.927L462.952,325.92  C467.414,321.791,468.892,315.352,466.676,309.691z" data-original="#FEA832" class="active-path" data-old_color="#FEA832"/><path style="fill:#A0A0A5;" d="M118.154,192h275.692c8.157,0,14.769-6.613,14.769-14.769c0-8.157-6.613-14.769-14.769-14.769  H118.154c-8.157,0-14.769,6.613-14.769,14.769C103.385,185.387,109.997,192,118.154,192z" data-original="#A0A0A5" class=""/><path style="fill:#A0A0A5" d="M393.847,162.462H256V192h137.846c8.157,0,14.769-6.613,14.769-14.769  C408.616,169.074,402.003,162.462,393.847,162.462z" data-original="#7D8287" class="" data-old_color="#7D8287"/><path style="fill:#A0A0A5;" d="M393.847,241.231H118.154c-8.157,0-14.769,6.613-14.769,14.769s6.613,14.769,14.769,14.769h275.692  c8.157,0,14.769-6.613,14.769-14.769S402.003,241.231,393.847,241.231z" data-original="#A0A0A5" class=""/><path style="fill:#A0A0A5" d="M393.847,241.231H256v29.538h137.846c8.157,0,14.769-6.613,14.769-14.769  S402.003,241.231,393.847,241.231z" data-original="#7D8287" class="" data-old_color="#7D8287"/><path style="fill:#A0A0A5;" d="M196.923,320h-78.769c-8.157,0-14.769,6.613-14.769,14.769s6.613,14.769,14.769,14.769h78.769  c8.157,0,14.769-6.613,14.769-14.769S205.08,320,196.923,320z" data-original="#A0A0A5" class=""/><path style="fill:#E88F23" d="M266.029,508.073L462.952,325.92c4.462-4.128,5.94-10.567,3.724-16.227  c-2.216-5.66-7.674-9.383-13.753-9.383H256v211.692C259.648,511.999,263.246,510.647,266.029,508.073z" data-original="#E88F23" class="" data-old_color="#E88F23"/></g> </svg>
